<svg width="50" height="49" viewBox="0 0 50 49" fill="none" xmlns="http://www.w3.org/2000/svg">
<path d="M28.9071 14.3782C28.368 14.3782 27.9307 14.8021 27.9307 15.3244C27.9307 15.8463 28.368 16.2702 28.9071 16.2702C29.4463 16.2702 29.8836 15.8463 29.8836 15.3244C29.8836 14.8021 29.4463 14.3782 28.9071 14.3782Z" fill="black"/>
<path d="M22.9849 32.8583C23.3661 32.4883 23.3661 31.8896 22.9849 31.5196C22.6033 31.1507 21.9851 31.1507 21.6031 31.5196C21.2223 31.8896 21.2223 32.4883 21.6031 32.8583C21.9851 33.2272 22.6033 33.2272 22.9849 32.8583Z" fill="black"/>
<path d="M11.2488 48.1659C11.6273 48.5355 12.2436 48.5396 12.6271 48.1736L17.3618 43.6555C18.1662 42.8764 18.4108 41.7228 18.0571 40.7201L19.0755 39.7687C19.6239 39.2557 20.3458 38.9729 21.109 38.9729H34.0918C36.3951 38.9729 38.572 38.1162 40.2224 36.5605C40.2903 36.4966 39.7069 37.1622 49.0795 26.312C50.4696 24.7189 50.2616 22.3268 48.6155 20.9789C46.9796 19.6435 44.529 19.8353 43.1351 21.4009L37.3723 27.138C36.6446 26.2706 35.535 25.7298 34.336 25.7298H23.4459C21.8962 25.1019 20.252 24.784 18.5554 24.784C13.8542 24.784 9.74721 26.8863 7.54277 30.8323C6.61437 30.6619 5.63521 30.9339 4.9308 31.6162L0.284952 36.1295C-0.0943472 36.498 -0.0951103 37.0942 0.283426 37.4635L11.2488 48.1659ZM18.555 26.6757C20.0509 26.6757 21.4971 26.9673 22.8544 27.5424C22.978 27.5949 23.1112 27.6219 23.2459 27.6219H34.336C35.3949 27.6219 36.2894 28.4583 36.2894 29.5135C36.2894 30.5569 35.4133 31.4056 34.336 31.4056H26.3681C25.8289 31.4056 25.3916 31.8291 25.3916 32.3514C25.3916 32.874 25.8289 33.2972 26.3681 33.2972H34.336C36.4901 33.2972 38.2424 31.6 38.2424 29.5135C38.2424 29.3472 38.2301 29.1823 38.208 29.019C43.7826 23.4685 44.5687 22.6887 44.6023 22.6499C45.2983 21.8541 46.5339 21.7532 47.3558 22.4244C48.1785 23.0982 48.2827 24.2943 47.5848 25.0945L38.8254 35.2373C37.5463 36.4267 35.867 37.0813 34.0918 37.0813H21.109C19.8368 37.0813 18.6325 37.5525 17.719 38.4074L16.889 39.1833L9.23817 31.7729C11.0263 28.5237 14.3816 26.6757 18.555 26.6757ZM6.31291 32.9531C6.63497 32.6412 7.12951 32.585 7.52217 32.82C7.67137 32.908 16.0243 41.0187 16.0759 41.0856C16.3617 41.4586 16.3208 41.9882 15.9862 42.3127L11.9497 46.1644L2.35393 36.7989L6.31291 32.9531Z" fill="black"/>
<path d="M15.2348 20.0539H38.6731C40.2887 20.0539 41.6029 18.781 41.6029 17.2161C41.6029 14.8317 41.6029 4.55249 41.6029 2.83787C41.6029 1.27294 40.2887 0 38.6731 0H15.2348C13.6191 0 12.3049 1.27294 12.3049 2.83787V17.2161C12.3049 18.781 13.6191 20.0539 15.2348 20.0539ZM39.6496 7.5674H14.2583V5.67573H39.6496V7.5674ZM38.6731 18.1623H15.2348C14.6963 18.1623 14.2583 17.7376 14.2583 17.2161V9.45943H39.6496V17.2161C39.6496 17.7376 39.2115 18.1623 38.6731 18.1623ZM15.2348 1.89203H38.6731C39.2115 1.89203 39.6496 2.31635 39.6496 2.83787V3.7837H14.2583V2.83787C14.2583 2.31635 14.6963 1.89203 15.2348 1.89203Z" fill="black"/>
<path d="M36.7198 14.3782H32.8135C32.2743 14.3782 31.837 14.8017 31.837 15.3244C31.837 15.8466 32.2743 16.2702 32.8135 16.2702H36.7198C37.2594 16.2702 37.6967 15.8466 37.6967 15.3244C37.6967 14.8017 37.2594 14.3782 36.7198 14.3782Z" fill="black"/>
</svg>
