<svg width="50" height="34" viewBox="0 0 50 34" fill="none" xmlns="http://www.w3.org/2000/svg">
<path d="M29.4817 6.6539C29.4838 5.8348 29.2428 5.03351 28.7892 4.35147C28.3356 3.66942 27.6899 3.13729 26.9337 2.82242C26.1776 2.50756 25.345 2.42413 24.5414 2.58269C23.7378 2.74125 22.9993 3.13468 22.4194 3.71316C21.8395 4.29164 21.4443 5.02918 21.2837 5.83239C21.1232 6.63561 21.2046 7.46839 21.5177 8.22532C21.8307 8.98224 22.3612 9.62928 23.0422 10.0845C23.7231 10.5398 24.5238 10.7827 25.3429 10.7827C26.4389 10.7827 27.4901 10.3481 28.266 9.57408C29.042 8.80005 29.4792 7.74986 29.4817 6.6539ZM25.3429 9.56315C24.768 9.56114 24.2065 9.38882 23.7295 9.06794C23.2524 8.74707 22.8811 8.29203 22.6625 7.76028C22.4438 7.22854 22.3877 6.64393 22.5011 6.08028C22.6145 5.51664 22.8923 4.99923 23.2996 4.59339C23.7068 4.18755 24.2252 3.91148 24.7892 3.80004C25.3532 3.6886 25.9376 3.74678 26.4686 3.96725C26.9996 4.18771 27.4534 4.56057 27.7726 5.03875C28.0918 5.51692 28.2622 6.07896 28.2622 6.6539C28.26 7.42653 27.9514 8.16674 27.4041 8.71214C26.8568 9.25753 26.1156 9.56358 25.3429 9.56315Z" fill="#332208"/>
<path d="M11.8864 16.8804C11.3214 16.8817 10.7695 17.0504 10.3004 17.3653C9.83132 17.6801 9.46605 18.1269 9.25078 18.6493C9.0355 19.1716 8.97986 19.7461 9.0909 20.3C9.20194 20.8539 9.47467 21.3625 9.87463 21.7616C10.2746 22.1606 10.7839 22.4321 11.3381 22.5418C11.8923 22.6515 12.4666 22.5945 12.9884 22.378C13.5102 22.1615 13.9562 21.7952 14.2699 21.3253C14.5836 20.8555 14.751 20.3032 14.751 19.7382C14.7493 18.9796 14.4467 18.2527 13.9096 17.7169C13.3726 17.1812 12.645 16.8803 11.8864 16.8804ZM11.8864 21.3766C11.5626 21.3753 11.2465 21.2781 10.978 21.0972C10.7094 20.9164 10.5005 20.6601 10.3775 20.3606C10.2545 20.0611 10.223 19.7318 10.287 19.4145C10.3509 19.0971 10.5075 18.8058 10.7369 18.5773C10.9663 18.3488 11.2583 18.1935 11.5759 18.1308C11.8935 18.0681 12.2226 18.101 12.5216 18.2252C12.8206 18.3494 13.0761 18.5594 13.2558 18.8286C13.4356 19.0979 13.5315 19.4144 13.5315 19.7382C13.5302 20.1735 13.3563 20.5906 13.0479 20.8978C12.7394 21.2051 12.3217 21.3774 11.8864 21.377V21.3766Z" fill="#332208"/>
<path d="M29.9837 22.1938C29.4996 22.1949 29.0266 22.3395 28.6245 22.6093C28.2225 22.8791 27.9094 23.2619 27.7249 23.7096C27.5404 24.1572 27.4927 24.6495 27.5878 25.1242C27.6829 25.5989 27.9166 26.0348 28.2593 26.3768C28.6021 26.7188 29.0385 26.9515 29.5134 27.0456C29.9884 27.1396 30.4805 27.0908 30.9278 26.9053C31.375 26.7197 31.7572 26.4058 32.026 26.0032C32.2949 25.6005 32.4384 25.1272 32.4384 24.643C32.437 23.993 32.1777 23.37 31.7175 22.9109C31.2573 22.4517 30.6338 22.1938 29.9837 22.1938ZM29.9837 25.8727C29.7408 25.8716 29.5036 25.7986 29.3021 25.6628C29.1006 25.527 28.9438 25.3346 28.8516 25.1098C28.7594 24.885 28.7358 24.638 28.7839 24.3998C28.8319 24.1616 28.9495 23.943 29.1217 23.7716C29.2938 23.6002 29.513 23.4836 29.7513 23.4366C29.9897 23.3896 30.2367 23.4143 30.4611 23.5075C30.6854 23.6007 30.8772 23.7583 31.012 23.9604C31.1469 24.1625 31.2189 24.4001 31.2189 24.643C31.2178 24.9698 31.0871 25.2827 30.8555 25.5132C30.624 25.7437 30.3105 25.873 29.9837 25.8726V25.8727Z" fill="#332208"/>
<path d="M43.0232 13.8535C43.5073 13.8524 43.9803 13.7078 44.3824 13.438C44.7844 13.1682 45.0975 12.7854 45.282 12.3377C45.4665 11.8901 45.5143 11.3978 45.4191 10.9231C45.324 10.4484 45.0903 10.0125 44.7476 9.67049C44.4048 9.32852 43.9684 9.0958 43.4935 9.00174C43.0185 8.90768 42.5264 8.9565 42.0791 9.14204C41.6319 9.32757 41.2497 9.64149 40.9809 10.0441C40.712 10.4468 40.5685 10.9201 40.5685 11.4043C40.5699 12.0543 40.8292 12.6773 41.2894 13.1364C41.7496 13.5956 42.3731 13.8535 43.0232 13.8535ZM43.0232 10.1746C43.2661 10.1757 43.5033 10.2487 43.7048 10.3845C43.9063 10.5203 44.0631 10.7127 44.1553 10.9375C44.2475 11.1623 44.2711 11.4093 44.223 11.6475C44.175 11.8857 44.0574 12.1043 43.8852 12.2757C43.7131 12.4471 43.4939 12.5637 43.2556 12.6107C43.0172 12.6577 42.7702 12.633 42.5458 12.5398C42.3215 12.4466 42.1297 12.289 41.9949 12.0869C41.86 11.8848 41.788 11.6472 41.788 11.4043C41.7891 11.0775 41.9198 10.7646 42.1513 10.534C42.3829 10.3035 42.6964 10.1742 43.0232 10.1746Z" fill="#332208"/>
<path d="M44.801 16.2146L46.4092 14.0711C47.0286 13.2623 47.3367 12.2578 47.2773 11.2408C47.1325 9.02165 45.3149 7.28313 43.1393 7.28313C40.9636 7.28313 39.1464 9.02165 39.0012 11.2403C38.9698 11.744 39.0325 12.2492 39.1861 12.73L29.1288 12.9144L30.6809 10.8446C31.6716 9.55266 32.1647 7.94758 32.0703 6.32226C31.9636 4.65967 31.2568 3.09239 30.0814 1.91168C29.4758 1.30563 28.7568 0.824865 27.9653 0.496849C27.1738 0.168833 26.3255 0 25.4688 0C24.612 0 23.7637 0.168833 22.9722 0.496849C22.1807 0.824865 21.4617 1.30563 20.8561 1.91168C19.6809 3.0921 18.9742 4.65901 18.8673 6.32124C18.7636 7.87114 19.2553 9.47511 20.2561 10.8436L21.5988 12.6331L7.30689 12.7274C7.18039 12.7282 7.05729 12.7683 6.95463 12.8422C6.85197 12.9161 6.77484 13.0202 6.73392 13.1399L0.0327878 32.73C0.00140522 32.8218 -0.00762292 32.9198 0.00645318 33.0158C0.0205293 33.1117 0.0573034 33.203 0.113721 33.2819C0.170139 33.3608 0.244571 33.4251 0.330837 33.4695C0.417102 33.5139 0.51271 33.537 0.60972 33.537H49.3903C49.4859 33.537 49.5803 33.5145 49.6656 33.4713C49.7509 33.4281 49.8249 33.3655 49.8816 33.2884C49.9382 33.2113 49.9759 33.122 49.9917 33.0276C50.0074 32.9333 50.0008 32.8366 49.9722 32.7453L44.801 16.2146ZM40.2176 11.3202C40.308 9.93527 41.4252 8.50265 43.1388 8.50265C44.8523 8.50265 45.9695 9.93558 46.0599 11.3219C46.0999 12.0474 45.8776 12.7632 45.4337 13.3385L43.1388 16.3975L40.8482 13.3446C40.4076 12.7644 40.1846 12.048 40.2181 11.3202H40.2176ZM39.7765 13.9384C39.8069 13.9827 39.8374 14.0268 39.8689 14.0705L42.6516 17.7799C42.7084 17.8556 42.782 17.9171 42.8667 17.9594C42.9513 18.0018 43.0447 18.0238 43.1394 18.0238C43.234 18.0238 43.3274 18.0018 43.4121 17.9594C43.4967 17.9171 43.5704 17.8556 43.6272 17.7799L43.8994 17.4171L44.5926 19.6333L35.1383 19.6354L34.4533 14.0367L39.7765 13.9384ZM21.2365 10.1182C20.409 8.9868 19.9999 7.66728 20.0845 6.40203C20.1721 5.03423 20.7532 3.74472 21.72 2.77317C22.2123 2.28073 22.7968 1.8901 23.4401 1.62359C24.0834 1.35708 24.7729 1.21991 25.4692 1.21991C26.1655 1.21991 26.855 1.35708 27.4982 1.62359C28.1415 1.8901 28.726 2.28073 29.2183 2.77317C30.1856 3.74513 30.767 5.03529 30.8545 6.40376C30.929 7.73762 30.5215 9.05383 29.7063 10.1122L25.4692 15.7597L21.2365 10.1182ZM1.46277 32.3175L4.63046 23.0568L8.23697 23.0459L11.5404 27.4489C11.5972 27.5246 11.6709 27.5861 11.7555 27.6285C11.8402 27.6708 11.9336 27.6928 12.0282 27.6928C12.1229 27.6928 12.2163 27.6708 12.3009 27.6285C12.3856 27.5861 12.4592 27.5246 12.516 27.4489L15.1482 23.9402L15.1806 32.3175H1.46277ZM14.9415 22.184L12.0281 26.0669L9.11929 22.19C8.54744 21.4074 8.26441 20.498 8.32274 19.6271C8.43717 17.872 9.85455 16.0566 12.0281 16.0566C14.2017 16.0566 15.6191 17.872 15.7337 19.6288C15.7846 20.548 15.5035 21.4548 14.9415 22.184ZM24.5517 25.9252C24.4942 25.982 24.4484 26.0496 24.4172 26.1242C24.386 26.1988 24.37 26.2788 24.37 26.3597L24.3733 32.3175H16.4001L16.3618 22.217C16.8041 21.3999 17.0083 20.4751 16.9512 19.5477C16.779 16.9063 14.6168 14.8371 12.0288 14.8371C9.44093 14.8371 7.27884 16.9063 7.10658 19.5467C7.06024 20.3291 7.20102 21.1113 7.51725 21.8285L5.04875 21.836L7.74825 13.944L22.5104 13.8472L24.9821 17.1417C25.0389 17.2174 25.1126 17.2789 25.1972 17.3212C25.2819 17.3636 25.3753 17.3856 25.4699 17.3856C25.5646 17.3856 25.6579 17.3636 25.7426 17.3212C25.8273 17.2789 25.9009 17.2174 25.9577 17.1417L28.2012 14.1507L33.2276 14.0586L33.9934 20.3187C34.0115 20.4665 34.083 20.6026 34.1945 20.7013C34.306 20.7999 34.4498 20.8544 34.5987 20.8544L44.9741 20.8521L46.5041 25.743L34.1174 25.7641C34.2258 25.345 34.2665 24.9112 34.2379 24.4793C34.0932 22.26 32.2755 20.5216 30.0999 20.5216C27.9243 20.5216 26.1066 22.26 25.9619 24.4783C25.9343 24.9116 25.977 25.3465 26.0883 25.7662L24.9889 25.7498C24.9079 25.7476 24.8274 25.7621 24.7522 25.7923C24.677 25.8224 24.6088 25.8677 24.5517 25.9252ZM32.3947 26.577L30.0998 29.6359L27.8094 26.5832C27.3685 26.0031 27.1453 25.2867 27.1787 24.5589C27.269 23.1738 28.3864 21.7413 30.0998 21.7413C31.8132 21.7413 32.9306 23.1742 33.0211 24.5606C33.0608 25.2861 32.8385 26.0018 32.3947 26.5771V26.577ZM25.5928 32.3175L25.5898 26.9784L26.6176 26.9936C26.6836 27.1006 26.7542 27.2056 26.8294 27.3087L29.612 31.018C29.6688 31.0938 29.7425 31.1552 29.8271 31.1976C29.9118 31.2399 30.0051 31.2619 30.0998 31.2619C30.1945 31.2619 30.2878 31.2399 30.3725 31.1976C30.4572 31.1552 30.5308 31.0938 30.5876 31.018L33.3698 27.3098C33.4493 27.2041 33.5236 27.0957 33.5927 26.9846L46.8854 26.962L48.5606 32.3175H25.5928Z" fill="#332208"/>
</svg>
