<svg width="60" height="26" viewBox="0 0 60 26" fill="none" xmlns="http://www.w3.org/2000/svg">
<path d="M25 9.5166H28.9998V11.6318H25V9.5166Z" fill="black"/>
<path d="M59.1418 6.3551L52.349 5.32933C51.1104 4.52473 49.825 3.80446 48.4997 3.1724C44.1231 1.07612 39.373 -0.005572 34.5679 2.15834e-05H33.3878C27.7173 0.00432422 22.1374 1.50898 17.157 4.37672L13.7288 6.35424C9.71598 6.402 5.78043 7.53059 2.29411 9.63203C0.877278 10.4913 0.00244141 12.0854 0 13.8121V20.091C0 20.6753 0.447591 21.1486 1.00016 21.1486H4.35791C5.45003 24.4432 8.86108 26.178 11.9767 25.0232C13.6918 24.3877 15.0399 22.9618 15.6409 21.1486H42.358C43.4501 24.4432 46.8612 26.178 49.9768 25.0232C51.6915 24.3877 53.0399 22.9618 53.6409 21.1486H53.9998C54.1272 21.1486 54.2533 21.1232 54.3717 21.0733L57.6107 19.699C59.0576 19.0932 60.0053 17.6122 60 15.9673V7.40194C60 6.87615 59.6342 6.42996 59.1418 6.3551ZM13.9189 19.8797C13.4766 22.1683 11.3635 23.6446 9.19922 23.1769C7.0345 22.7092 5.63843 20.4748 6.08073 18.1858C6.52344 15.8972 8.63647 14.4209 10.8008 14.8886C12.6632 15.2909 14.0002 17.0236 13.9998 19.0338C13.9998 19.3178 13.9726 19.6014 13.9189 19.8797ZM31.9999 19.0338H15.9998C15.9998 15.5297 13.3138 12.6891 10 12.6891C6.6862 12.6891 3.99984 15.5297 3.99984 19.0338H1.99992V13.8121C2.00114 12.8436 2.49186 11.949 3.28695 11.468C6.55029 9.49778 10.2425 8.46083 13.9998 8.45954H31.9999V19.0338ZM31.9999 6.34477H17.922L18.1148 6.23333C22.3901 3.77649 27.1391 2.38371 31.9999 2.16126V6.34477ZM33.9998 2.11479H34.5658C38.5958 2.11006 42.5891 2.91897 46.3322 4.49848L44.5862 6.34477H33.9998V2.11479ZM51.9189 19.8797C51.4766 22.1683 49.3636 23.6446 47.1989 23.1769C45.0346 22.7092 43.6385 20.4748 44.0808 18.1858C44.5231 15.8972 46.6365 14.4209 48.8008 14.8886C50.6632 15.2909 52.0003 17.0236 51.9999 19.0338C51.9999 19.3178 51.9726 19.6014 51.9189 19.8797ZM58.0001 9.51671H55V11.6319H58.0001V15.9673C58.0025 16.7465 57.5533 17.4479 56.8681 17.734L53.9998 18.9521C53.9998 18.8548 53.988 18.7585 53.9819 18.6612C53.9758 18.564 53.9738 18.45 53.964 18.3441C53.9538 18.2383 53.9339 18.1324 53.918 18.027C53.9018 17.9212 53.89 17.8153 53.87 17.7194C53.8501 17.623 53.8208 17.5163 53.7947 17.4156C53.7687 17.3153 53.7488 17.2138 53.7187 17.1153C53.6889 17.0172 53.6527 16.9229 53.619 16.8266C53.5848 16.7306 53.5539 16.6312 53.5189 16.5357C53.4839 16.4406 53.4367 16.3541 53.3948 16.2642C53.3528 16.1743 53.3118 16.0757 53.265 15.9849C53.2178 15.8942 53.1649 15.8167 53.1197 15.7324C53.0749 15.6476 53.02 15.5512 52.963 15.4648C52.9057 15.3778 52.8528 15.3094 52.7978 15.2311C52.7429 15.1528 52.6806 15.0607 52.6168 14.9794C52.5529 14.8981 52.4931 14.8344 52.4308 14.7677C52.369 14.7015 52.2998 14.6115 52.231 14.5375C52.1618 14.4635 52.0939 14.405 52.0251 14.3396C51.956 14.2742 51.8819 14.1967 51.8058 14.1279C51.7301 14.0595 51.6528 14.0066 51.5771 13.9463C51.501 13.8861 51.425 13.8216 51.3452 13.7652C51.265 13.7093 51.1751 13.6598 51.0893 13.6004C51.003 13.541 50.933 13.4946 50.852 13.4494C50.7711 13.4038 50.6702 13.356 50.5782 13.3095C50.4862 13.2631 50.4142 13.2218 50.3292 13.1839C50.2441 13.1456 50.129 13.1056 50.0293 13.0677C49.9292 13.0294 49.8641 12.9997 49.779 12.9713C49.6651 12.9343 49.5483 12.9077 49.4319 12.8771C49.3559 12.8582 49.283 12.8328 49.2061 12.816C49.0832 12.7893 48.9571 12.7747 48.8322 12.7553C48.7581 12.745 48.6873 12.7278 48.6133 12.7205C48.4131 12.6994 48.2133 12.6878 48.0033 12.6878C44.6907 12.6912 42.0064 15.5297 42.0032 19.0325H34.0002V8.45911H45C45.2653 8.45911 45.5196 8.34767 45.7068 8.14932L48.3 5.40721C49.3884 5.95495 50.4468 6.56722 51.4701 7.24102C51.5881 7.3189 51.72 7.3701 51.8579 7.39118L58.0001 8.31841V9.51671Z" fill="black"/>
</svg>
