<svg width="60" height="47" viewBox="0 0 60 47" fill="none" xmlns="http://www.w3.org/2000/svg">
<path d="M38.4543 41.3332H5.5759C3.47063 41.3332 1.75781 39.6205 1.75781 37.5153V11.2123C1.75781 9.10698 3.47063 7.39429 5.5759 7.39429C6.06129 7.39429 6.45481 7.00077 6.45481 6.51538C6.45481 6.02987 6.06129 5.63647 5.5759 5.63647C2.50137 5.63647 0 8.13773 0 11.2123V37.5153C0 40.5898 2.50137 43.091 5.5759 43.091H38.4543C38.9397 43.091 39.3332 42.6976 39.3332 42.2121C39.3332 41.7269 38.9397 41.3332 38.4543 41.3332Z" fill="#DAB910"/>
<path d="M54.4242 5.63647H25.303C24.8176 5.63647 24.4241 6.02987 24.4241 6.51538C24.4241 7.00077 24.8176 7.39429 25.303 7.39429H54.4242C56.5295 7.39429 58.2423 9.10698 58.2423 11.2123V37.5153C58.2423 39.6205 56.5295 41.3332 54.4242 41.3332H53.4848C52.9994 41.3332 52.6059 41.7267 52.6059 42.2121C52.6059 42.6976 52.9994 43.091 53.4848 43.091H54.4242C57.4987 43.091 60.0001 40.5898 60.0001 37.5153V11.2123C60.0001 8.13773 57.4987 5.63647 54.4242 5.63647Z" fill="#DAB910"/>
<path d="M9.3335 7.39419C11.9567 7.39419 14.091 9.52829 14.091 12.1517C14.091 12.637 14.4845 13.0306 14.9699 13.0306C15.4553 13.0306 15.8488 12.637 15.8488 12.1517C15.8488 9.52841 17.983 7.39419 20.6062 7.39419C21.0916 7.39419 21.4851 7.00067 21.4851 6.51528C21.4851 6.02977 21.0916 5.63637 20.6062 5.63637C17.983 5.63637 15.8488 3.50215 15.8488 0.878907C15.8488 0.393516 15.4553 0 14.9699 0C14.4845 0 14.091 0.393516 14.091 0.878907C14.091 3.50215 11.9569 5.63637 9.3335 5.63637C8.84811 5.63637 8.45459 6.02977 8.45459 6.51528C8.45459 7.00067 8.84811 7.39419 9.3335 7.39419ZM14.9699 4.14434C15.5405 5.12543 16.3597 5.94469 17.3408 6.51528C16.3597 7.08575 15.5405 7.90512 14.9699 8.8861C14.3993 7.90512 13.58 7.08575 12.599 6.51528C13.5799 5.94469 14.3993 5.12543 14.9699 4.14434Z" fill="#DAB910"/>
<path d="M49.7273 41.3332C48.14 41.3332 46.8487 40.0418 46.8487 38.4546C46.8487 37.9692 46.4552 37.5757 45.9698 37.5757C45.4844 37.5757 45.0909 37.9692 45.0909 38.4546C45.0909 40.0419 43.7995 41.3332 42.2122 41.3332C41.7268 41.3332 41.3333 41.7267 41.3333 42.2121C41.3333 42.6976 41.7268 43.091 42.2122 43.091C43.7995 43.091 45.0909 44.3824 45.0909 45.9697C45.0909 46.4551 45.4844 46.8486 45.9698 46.8486C46.4552 46.8486 46.8487 46.4551 46.8487 45.9697C46.8487 44.3824 48.1401 43.091 49.7273 43.091C50.2127 43.091 50.6062 42.6976 50.6062 42.2121C50.6062 41.7268 50.2127 41.3332 49.7273 41.3332ZM45.9697 43.2564C45.6793 42.8553 45.3264 42.5025 44.9254 42.2121C45.3263 41.9217 45.6793 41.5689 45.9697 41.168C46.2601 41.5689 46.6129 41.9218 47.0139 42.2121C46.6129 42.5025 46.2601 42.8555 45.9697 43.2564Z" fill="#DAB910"/>
<path d="M13.2761 15.9697C12.7907 15.9697 12.3972 16.3632 12.3972 16.8486V31.8662C12.3972 32.2943 12.7057 32.66 13.1275 32.7325C13.1886 32.7429 13.2769 32.7581 14.9073 32.7581C15.6985 32.7581 16.8534 32.7545 18.5443 32.7451C19.0297 32.7424 19.421 32.3467 19.4183 31.8613C19.4156 31.3776 19.0227 30.9873 18.5395 30.9873C18.5378 30.9873 18.5361 30.9873 18.5344 30.9873C17.2017 30.9947 15.25 31.0022 14.1551 30.9995V16.8486C14.155 16.3632 13.7615 15.9697 13.2761 15.9697Z" fill="#DAB910"/>
<path d="M37.2863 32.5973C37.4402 32.7057 37.6168 32.7578 37.7918 32.7578C38.068 32.7578 38.3399 32.628 38.5111 32.3851L43.4623 25.3567L48.4062 32.3845C48.5773 32.6278 48.8494 32.7578 49.1258 32.7578C49.3005 32.7578 49.477 32.7058 49.6308 32.5977C50.0278 32.3184 50.1232 31.7701 49.8439 31.3732L44.5377 23.8303L49.0996 17.3547C49.3791 16.9579 49.284 16.4096 48.8872 16.13C48.4904 15.8504 47.9421 15.9455 47.6625 16.3423L43.4633 22.303L39.2705 16.3428C38.9911 15.9456 38.4429 15.8504 38.0458 16.1296C37.6488 16.4089 37.5534 16.9572 37.8327 17.3541L42.3879 23.8294L37.074 31.3726C36.7945 31.7695 36.8896 32.3178 37.2863 32.5973Z" fill="#DAB910"/>
<path d="M24.7423 31.8272C25.7063 32.4431 26.7972 32.7561 27.9847 32.7578H27.9946C29.0264 32.7578 29.9918 32.535 30.8641 32.0958C33.0336 31.0031 34.1803 29.3034 34.1803 27.1802V16.8486C34.1803 16.3632 33.7868 15.9697 33.3014 15.9697C32.816 15.9697 32.4225 16.3632 32.4225 16.8486V27.1802C32.4225 28.6354 31.6541 29.7298 30.0735 30.5258C29.4485 30.8406 28.7491 31.0001 27.9943 31C27.9919 31 27.9894 31 27.987 31C27.1393 30.9988 26.366 30.7787 25.6886 30.3458C24.3202 29.4716 23.7363 28.528 23.7363 27.191V16.8486C23.7363 16.3632 23.3428 15.9697 22.8574 15.9697C22.372 15.9697 21.9785 16.3632 21.9785 16.8486V27.191C21.9786 29.1226 22.8826 30.639 24.7423 31.8272Z" fill="#DAB910"/>
</svg>
